<svg width="20" height="20" fill="none" xmlns="http://www.w3.org/2000/svg"><path d="M19 10c.552 0 1.005-.449.95-.998A10.002 10.002 0 0010.998.05C10.448-.005 10 .448 10 1c0 .552.45.994.997 1.062a8.006 8.006 0 014.66 2.281 8 8 0 012.28 4.66c.07.548.51.997 1.063.997zM0 8V3a1 1 0 011-1h5a1 1 0 011 1v4a1 1 0 01-1 1c-1.105 0-2.026.91-1.753 1.98a8.014 8.014 0 005.773 5.773C11.09 16.026 12 15.105 12 14a1 1 0 011-1h4a1 1 0 011 1v5a1 1 0 01-1 1h-5C5.373 20 0 14.627 0 8z" fill="#FDAB1E"/><path d="M15.543 7.704c.187.45.317.92.39 1.4.074.49-.336.896-.833.896-.497 0-.89-.407-.996-.893a4.195 4.195 0 00-2.497-2.987 4.204 4.204 0 00-.714-.224C10.407 5.79 10 5.397 10 4.9s.405-.907.897-.833a6.001 6.001 0 014.646 3.637z" fill="#FDAB1E"/></svg>