<svg width="24" height="24" fill="none" xmlns="http://www.w3.org/2000/svg"><g filter="url(#filter0_di)" fill="#FFAA29"><path d="M14 11h-4v2h4v-2z"/><path fill-rule="evenodd" clip-rule="evenodd" d="M7 5V4a2 2 0 012-2h6a2 2 0 012 2v1h3a3 3 0 013 3v10a3 3 0 01-3 3H4a3 3 0 01-3-3V8a3 3 0 013-3h3zm2-1h6v1H9V4zM4 7a1 1 0 00-1 1v6h18V8a1 1 0 00-1-1H4zM3 18v-2h18v2a1 1 0 01-1 1H4a1 1 0 01-1-1z"/></g><defs><filter id="filter0_di" x="0" y="0" width="24" height="25" filterUnits="userSpaceOnUse" color-interpolation-filters="sRGB"><feFlood flood-opacity="0" result="BackgroundImageFix"/><feColorMatrix in="SourceAlpha" values="0 0 0 0 0 0 0 0 0 0 0 0 0 0 0 0 0 0 127 0" result="hardAlpha"/><feOffset dy="1"/><feColorMatrix values="0 0 0 0 0.72549 0 0 0 0 0.34902 0 0 0 0 0.215686 0 0 0 1 0"/><feBlend in2="BackgroundImageFix" result="effect1_dropShadow"/><feBlend in="SourceGraphic" in2="effect1_dropShadow" result="shape"/><feColorMatrix in="SourceAlpha" values="0 0 0 0 0 0 0 0 0 0 0 0 0 0 0 0 0 0 127 0" result="hardAlpha"/><feMorphology radius="5" in="SourceAlpha" result="effect2_innerShadow"/><feOffset/><feGaussianBlur stdDeviation="10"/><feComposite in2="hardAlpha" operator="arithmetic" k2="-1" k3="1"/><feColorMatrix values="0 0 0 0 1 0 0 0 0 1 0 0 0 0 1 0 0 0 0.15 0"/><feBlend in2="shape" result="effect2_innerShadow"/></filter></defs></svg>