<svg width="24" height="24" fill="none" xmlns="http://www.w3.org/2000/svg"><path d="M6 8.156c.74 0 1.387-.397 1.732-.986H14c1.105 0 2 .883 2 1.972 0 1.09-.895 1.972-2 1.972h-4c-2.21 0-4 1.766-4 3.945s1.79 3.945 4 3.945h6.268c.345.59.992.986 1.732.986 1.105 0 2-.883 2-1.972 0-1.09-.895-1.973-2-1.973-.74 0-1.387.397-1.732.986H10c-1.105 0-2-.883-2-1.972 0-1.09.895-1.972 2-1.972h4c2.21 0 4-1.766 4-3.945s-1.79-3.945-4-3.945H7.732A2.004 2.004 0 006 4.211c-1.105 0-2 .883-2 1.972 0 1.09.895 1.973 2 1.973z" fill="#FFA722"/></svg>