<svg width="24" height="24" fill="none" xmlns="http://www.w3.org/2000/svg"><path d="M14 11h-4v2h4v-2z" fill="#F90"/><path d="M14 11h-4v2h4v-2z" fill="url(#paint0_linear)" fill-opacity=".35"/><path fill-rule="evenodd" clip-rule="evenodd" d="M7 5V4a2 2 0 012-2h6a2 2 0 012 2v1h3a3 3 0 013 3v10a3 3 0 01-3 3H4a3 3 0 01-3-3V8a3 3 0 013-3h3zm2-1h6v1H9V4zM4 7a1 1 0 00-1 1v6h18V8a1 1 0 00-1-1H4zM3 18v-2h18v2a1 1 0 01-1 1H4a1 1 0 01-1-1z" fill="#F90"/><path fill-rule="evenodd" clip-rule="evenodd" d="M7 5V4a2 2 0 012-2h6a2 2 0 012 2v1h3a3 3 0 013 3v10a3 3 0 01-3 3H4a3 3 0 01-3-3V8a3 3 0 013-3h3zm2-1h6v1H9V4zM4 7a1 1 0 00-1 1v6h18V8a1 1 0 00-1-1H4zM3 18v-2h18v2a1 1 0 01-1 1H4a1 1 0 01-1-1z" fill="url(#paint1_linear)" fill-opacity=".35"/><defs><linearGradient id="paint0_linear" x1="21.706" y1="17.088" x2="6.326" y2="2.578" gradientUnits="userSpaceOnUse"><stop stop-color="#fff"/><stop offset="1" stop-color="#fff" stop-opacity="0"/></linearGradient><linearGradient id="paint1_linear" x1="21.706" y1="17.088" x2="6.326" y2="2.578" gradientUnits="userSpaceOnUse"><stop stop-color="#fff"/><stop offset="1" stop-color="#fff" stop-opacity="0"/></linearGradient></defs></svg>