<svg width="24" height="24" fill="none" xmlns="http://www.w3.org/2000/svg"><path d="M7 18h10v-2H7v2z" fill="#F90"/><path d="M7 18h10v-2H7v2z" fill="url(#paint0_linear)" fill-opacity=".35"/><path d="M17 14H7v-2h10v2z" fill="#F90"/><path d="M17 14H7v-2h10v2z" fill="url(#paint1_linear)" fill-opacity=".35"/><path d="M7 10h4V8H7v2z" fill="#F90"/><path d="M7 10h4V8H7v2z" fill="url(#paint2_linear)" fill-opacity=".35"/><path fill-rule="evenodd" clip-rule="evenodd" d="M6 2a3 3 0 00-3 3v14a3 3 0 003 3h12a3 3 0 003-3V9a7 7 0 00-7-7H6zm0 2h7v5h6v10a1 1 0 01-1 1H6a1 1 0 01-1-1V5a1 1 0 011-1zm9 .1A5.009 5.009 0 0118.584 7H15V4.1z" fill="#F90"/><path fill-rule="evenodd" clip-rule="evenodd" d="M6 2a3 3 0 00-3 3v14a3 3 0 003 3h12a3 3 0 003-3V9a7 7 0 00-7-7H6zm0 2h7v5h6v10a1 1 0 01-1 1H6a1 1 0 01-1-1V5a1 1 0 011-1zm9 .1A5.009 5.009 0 0118.584 7H15V4.1z" fill="url(#paint3_linear)" fill-opacity=".35"/><defs><linearGradient id="paint0_linear" x1="19.941" y1="17.882" x2="4.474" y2="6.54" gradientUnits="userSpaceOnUse"><stop stop-color="#fff"/><stop offset="1" stop-color="#fff" stop-opacity="0"/></linearGradient><linearGradient id="paint1_linear" x1="19.941" y1="17.882" x2="4.474" y2="6.54" gradientUnits="userSpaceOnUse"><stop stop-color="#fff"/><stop offset="1" stop-color="#fff" stop-opacity="0"/></linearGradient><linearGradient id="paint2_linear" x1="19.941" y1="17.882" x2="4.474" y2="6.54" gradientUnits="userSpaceOnUse"><stop stop-color="#fff"/><stop offset="1" stop-color="#fff" stop-opacity="0"/></linearGradient><linearGradient id="paint3_linear" x1="19.941" y1="17.882" x2="4.474" y2="6.54" gradientUnits="userSpaceOnUse"><stop stop-color="#fff"/><stop offset="1" stop-color="#fff" stop-opacity="0"/></linearGradient></defs></svg>