<svg width="24" height="24" fill="none" xmlns="http://www.w3.org/2000/svg"><path fill-rule="evenodd" clip-rule="evenodd" d="M2 19a3 3 0 003 3h14a3 3 0 003-3V5a3 3 0 00-3-3H5a3 3 0 00-3 3v14zm18 0a1 1 0 01-1 1H5a1 1 0 01-1-1V5a1 1 0 011-1h5v8.011h2.395L14 9.864l1.605 2.147H18V4h1a1 1 0 011 1v14zM16 4h-4v5.336l2-2.676 2 2.676V4z" fill="#F90"/><path fill-rule="evenodd" clip-rule="evenodd" d="M2 19a3 3 0 003 3h14a3 3 0 003-3V5a3 3 0 00-3-3H5a3 3 0 00-3 3v14zm18 0a1 1 0 01-1 1H5a1 1 0 01-1-1V5a1 1 0 011-1h5v8.011h2.395L14 9.864l1.605 2.147H18V4h1a1 1 0 011 1v14zM16 4h-4v5.336l2-2.676 2 2.676V4z" fill="url(#paint0_linear)" fill-opacity=".35"/><defs><linearGradient id="paint0_linear" x1="20.823" y1="17.882" x2="4.941" y2="4.941" gradientUnits="userSpaceOnUse"><stop stop-color="#fff"/><stop offset="1" stop-color="#fff" stop-opacity="0"/></linearGradient></defs></svg>