<svg width="24" height="24" fill="none" xmlns="http://www.w3.org/2000/svg"><path fill-rule="evenodd" clip-rule="evenodd" d="M12.5 19.972a7.453 7.453 0 01-3.99-1.17L5 19.972l1.17-3.511a7.486 7.486 0 116.33 3.511zm1.63-6.364a14.18 14.18 0 001.52.4.404.404 0 01.34.476v.288a.661.661 0 01-.24.542 2.76 2.76 0 01-.86.592 3.481 3.481 0 01-2.66-.8 8.813 8.813 0 01-1.31-1.075c-.4-.403-.76-.842-1.08-1.311a3.482 3.482 0 01-.79-2.655c.141-.32.341-.61.59-.856a.62.62 0 01.54-.236h.29a.417.417 0 01.47.355c.15.592.26 1.02.41 1.5.06.2-.01.248-.17.368-.1.077-.18.133-.26.192a.36.36 0 00-.17.509 5.6 5.6 0 00.97 1.338 5.46 5.46 0 001.34.967.364.364 0 00.51-.17c.06-.08.11-.156.19-.26a.284.284 0 01.37-.171v.007z" fill="#fff"/></svg>