<svg width="24" height="24" fill="none" xmlns="http://www.w3.org/2000/svg"><path fill-rule="evenodd" clip-rule="evenodd" d="M8.426 6.923c.37.6 1.2 2.047 1.32 2.311a.8.8 0 01-.24 1.066 5.553 5.553 0 00-.91.689c-.14.267-.27 1.3 1.27 2.833 1.54 1.533 2.78 1.843 3.1 1.5.32-.343.51-.722.71-.922a.862.862 0 011.16-.1c.848.448 1.666.949 2.45 1.5.49.378.86.653.68 1.144-.165.491-.438.94-.8 1.311a2.512 2.512 0 01-2.28.678 10.227 10.227 0 01-3.25-1.433 20.28 20.28 0 01-2.92-2.544 20.66 20.66 0 01-2.23-2.588 11.9 11.9 0 01-1.41-3.555 2.085 2.085 0 01.43-1.921c.4-.415.91-.708 1.47-.844.39-.102.83-.102 1.45.875zm3.09.159V6a6.5 6.5 0 016.5 6.5h-1.08a5.42 5.42 0 00-5.42-5.418zm4.33 5.417h-1.08a3.253 3.253 0 00-3.25-3.25V8.166a4.332 4.332 0 014.33 4.334v-.001z" fill="#fff"/></svg>